<mxfile host="app.diagrams.net" modified="2023-06-18T17:12:19.016Z" agent="Mozilla/5.0 (Windows NT 10.0; Win64; x64) AppleWebKit/537.36 (KHTML, like Gecko) Chrome/114.0.0.0 Safari/537.36" etag="xpScepbNKwpYtemt6uTA" version="21.4.0" type="device">
  <diagram name="Page-1" id="BXRBHZn7yLMNFsL2Z0cU">
    <mxGraphModel dx="1050" dy="1649" grid="0" gridSize="10" guides="1" tooltips="1" connect="1" arrows="1" fold="1" page="1" pageScale="1" pageWidth="850" pageHeight="1100" math="0" shadow="0">
      <root>
        <mxCell id="0" />
        <mxCell id="1" parent="0" />
        <mxCell id="koE-FXHFQxNhfMu8KF9X-2" value="" style="rounded=0;whiteSpace=wrap;html=1;direction=south;fontStyle=1;fontSize=14;" vertex="1" parent="1">
          <mxGeometry x="325" y="-1033" width="200" height="609" as="geometry" />
        </mxCell>
        <mxCell id="koE-FXHFQxNhfMu8KF9X-3" value="Start Webcam" style="ellipse;whiteSpace=wrap;html=1;fontStyle=1;fontSize=14;" vertex="1" parent="1">
          <mxGeometry x="365.5" y="-995" width="120" height="50" as="geometry" />
        </mxCell>
        <mxCell id="koE-FXHFQxNhfMu8KF9X-4" value="Capture Video" style="ellipse;whiteSpace=wrap;html=1;fontStyle=1;fontSize=14;" vertex="1" parent="1">
          <mxGeometry x="365.5" y="-925" width="120" height="50" as="geometry" />
        </mxCell>
        <mxCell id="koE-FXHFQxNhfMu8KF9X-5" value="Capture Gesture" style="ellipse;whiteSpace=wrap;html=1;fontStyle=1;fontSize=14;" vertex="1" parent="1">
          <mxGeometry x="365.5" y="-855" width="120" height="50" as="geometry" />
        </mxCell>
        <mxCell id="koE-FXHFQxNhfMu8KF9X-6" value="Translate Gesture" style="ellipse;whiteSpace=wrap;html=1;fontStyle=1;fontSize=14;" vertex="1" parent="1">
          <mxGeometry x="365.5" y="-785" width="120" height="50" as="geometry" />
        </mxCell>
        <mxCell id="koE-FXHFQxNhfMu8KF9X-7" value="Extract Features" style="ellipse;whiteSpace=wrap;html=1;fontStyle=1;fontSize=14;" vertex="1" parent="1">
          <mxGeometry x="365.5" y="-715" width="120" height="50" as="geometry" />
        </mxCell>
        <mxCell id="koE-FXHFQxNhfMu8KF9X-8" value="Match Features" style="ellipse;whiteSpace=wrap;html=1;fontStyle=1;fontSize=14;" vertex="1" parent="1">
          <mxGeometry x="365.5" y="-645" width="120" height="50" as="geometry" />
        </mxCell>
        <mxCell id="koE-FXHFQxNhfMu8KF9X-9" value="Recognize Gesture" style="ellipse;whiteSpace=wrap;html=1;fontStyle=1;fontSize=14;" vertex="1" parent="1">
          <mxGeometry x="365.5" y="-575" width="120" height="50" as="geometry" />
        </mxCell>
        <mxCell id="koE-FXHFQxNhfMu8KF9X-10" value="Display Result" style="ellipse;whiteSpace=wrap;html=1;fontStyle=1;fontSize=14;" vertex="1" parent="1">
          <mxGeometry x="365.5" y="-505" width="120" height="50" as="geometry" />
        </mxCell>
        <mxCell id="koE-FXHFQxNhfMu8KF9X-11" value="User" style="shape=umlActor;verticalLabelPosition=bottom;verticalAlign=top;html=1;outlineConnect=0;fontStyle=5;fontSize=14;" vertex="1" parent="1">
          <mxGeometry x="115" y="-735" width="30" height="60" as="geometry" />
        </mxCell>
        <mxCell id="koE-FXHFQxNhfMu8KF9X-12" value="System" style="shape=umlActor;verticalLabelPosition=bottom;verticalAlign=top;html=1;outlineConnect=0;fontStyle=5;fontSize=14;" vertex="1" parent="1">
          <mxGeometry x="706" y="-735" width="30" height="60" as="geometry" />
        </mxCell>
        <mxCell id="koE-FXHFQxNhfMu8KF9X-14" value="" style="endArrow=none;html=1;rounded=0;entryX=0;entryY=0.5;entryDx=0;entryDy=0;fontStyle=1;fontSize=14;" edge="1" parent="1" target="koE-FXHFQxNhfMu8KF9X-3">
          <mxGeometry width="50" height="50" relative="1" as="geometry">
            <mxPoint x="158" y="-729" as="sourcePoint" />
            <mxPoint x="348" y="-938" as="targetPoint" />
          </mxGeometry>
        </mxCell>
        <mxCell id="koE-FXHFQxNhfMu8KF9X-15" value="" style="endArrow=none;html=1;rounded=0;entryX=0;entryY=0.5;entryDx=0;entryDy=0;fontStyle=1;fontSize=14;" edge="1" parent="1" target="koE-FXHFQxNhfMu8KF9X-10">
          <mxGeometry width="50" height="50" relative="1" as="geometry">
            <mxPoint x="152" y="-671" as="sourcePoint" />
            <mxPoint x="496" y="-791" as="targetPoint" />
          </mxGeometry>
        </mxCell>
        <mxCell id="koE-FXHFQxNhfMu8KF9X-17" value="" style="endArrow=none;html=1;rounded=0;entryX=1;entryY=0.5;entryDx=0;entryDy=0;fontStyle=1;fontSize=14;" edge="1" parent="1" target="koE-FXHFQxNhfMu8KF9X-4">
          <mxGeometry width="50" height="50" relative="1" as="geometry">
            <mxPoint x="700" y="-741" as="sourcePoint" />
            <mxPoint x="496" y="-767" as="targetPoint" />
          </mxGeometry>
        </mxCell>
        <mxCell id="koE-FXHFQxNhfMu8KF9X-18" value="" style="endArrow=none;html=1;rounded=0;entryX=1;entryY=0.5;entryDx=0;entryDy=0;fontStyle=1;fontSize=14;" edge="1" parent="1" target="koE-FXHFQxNhfMu8KF9X-5">
          <mxGeometry width="50" height="50" relative="1" as="geometry">
            <mxPoint x="696" y="-730" as="sourcePoint" />
            <mxPoint x="506" y="-757" as="targetPoint" />
          </mxGeometry>
        </mxCell>
        <mxCell id="koE-FXHFQxNhfMu8KF9X-19" value="" style="endArrow=none;html=1;rounded=0;entryX=1;entryY=0.5;entryDx=0;entryDy=0;fontStyle=1;fontSize=14;" edge="1" parent="1" target="koE-FXHFQxNhfMu8KF9X-6">
          <mxGeometry width="50" height="50" relative="1" as="geometry">
            <mxPoint x="691" y="-714" as="sourcePoint" />
            <mxPoint x="516" y="-747" as="targetPoint" />
          </mxGeometry>
        </mxCell>
        <mxCell id="koE-FXHFQxNhfMu8KF9X-20" value="" style="endArrow=none;html=1;rounded=0;exitX=1;exitY=0.5;exitDx=0;exitDy=0;fontStyle=1;fontSize=14;" edge="1" parent="1" source="koE-FXHFQxNhfMu8KF9X-7">
          <mxGeometry width="50" height="50" relative="1" as="geometry">
            <mxPoint x="476" y="-687" as="sourcePoint" />
            <mxPoint x="692" y="-701" as="targetPoint" />
          </mxGeometry>
        </mxCell>
        <mxCell id="koE-FXHFQxNhfMu8KF9X-21" value="" style="endArrow=none;html=1;rounded=0;exitX=1;exitY=0.5;exitDx=0;exitDy=0;fontStyle=1;fontSize=14;" edge="1" parent="1" source="koE-FXHFQxNhfMu8KF9X-8">
          <mxGeometry width="50" height="50" relative="1" as="geometry">
            <mxPoint x="486" y="-677" as="sourcePoint" />
            <mxPoint x="692" y="-685" as="targetPoint" />
          </mxGeometry>
        </mxCell>
        <mxCell id="koE-FXHFQxNhfMu8KF9X-22" value="" style="endArrow=none;html=1;rounded=0;exitX=1;exitY=0.5;exitDx=0;exitDy=0;fontStyle=1;fontSize=14;" edge="1" parent="1" source="koE-FXHFQxNhfMu8KF9X-9">
          <mxGeometry width="50" height="50" relative="1" as="geometry">
            <mxPoint x="496" y="-667" as="sourcePoint" />
            <mxPoint x="695" y="-669" as="targetPoint" />
          </mxGeometry>
        </mxCell>
        <mxCell id="koE-FXHFQxNhfMu8KF9X-23" value="&lt;font size=&quot;1&quot; style=&quot;&quot;&gt;&lt;span style=&quot;font-size: 17px;&quot;&gt;Use Case Diagram Of Sign Language To Text &amp;amp; Voice Conversion&lt;/span&gt;&lt;/font&gt;" style="text;html=1;align=center;verticalAlign=middle;resizable=0;points=[];autosize=1;strokeColor=none;fillColor=none;strokeWidth=2;fontStyle=5" vertex="1" parent="1">
          <mxGeometry x="153.5" y="-390" width="544" height="32" as="geometry" />
        </mxCell>
      </root>
    </mxGraphModel>
  </diagram>
</mxfile>
